/* XPM */
static char * Amanita32_xpm[] = {
"32 32 237 2",
"  	c None",
". 	c #980000",
"+ 	c #A00001",
"@ 	c #A40100",
"# 	c #A90000",
"$ 	c #AB0000",
"% 	c #AC0001",
"& 	c #AD0001",
"* 	c #AE0002",
"= 	c #A70900",
"- 	c #C60100",
"; 	c #CE0000",
"> 	c #CD0003",
", 	c #D00000",
"' 	c #B20900",
") 	c #D10000",
"! 	c #A90C00",
"~ 	c #A80C07",
"{ 	c #9F0F11",
"] 	c #D30600",
"^ 	c #C00E00",
"/ 	c #B61100",
"( 	c #B61108",
"_ 	c #D50A00",
": 	c #A51815",
"< 	c #CC1000",
"[ 	c #C21300",
"} 	c #B11900",
"| 	c #CC1103",
"1 	c #B31B00",
"2 	c #D71101",
"3 	c #A71D23",
"4 	c #D91302",
"5 	c #BE1C04",
"6 	c #C71B01",
"7 	c #D31C00",
"8 	c #D41D00",
"9 	c #B8231B",
"0 	c #C42400",
"a 	c #A8282C",
"b 	c #AA2927",
"c 	c #CF2500",
"d 	c #D82302",
"e 	c #D12600",
"f 	c #D92400",
"g 	c #DB2600",
"h 	c #BC2F06",
"i 	c #C92A17",
"j 	c #CD2D00",
"k 	c #D42B01",
"l 	c #D92F00",
"m 	c #C43602",
"n 	c #DA3000",
"o 	c #AF3839",
"p 	c #BC381A",
"q 	c #C63800",
"r 	c #D43402",
"s 	c #CA3521",
"t 	c #C63810",
"u 	c #DE3400",
"v 	c #B33B3B",
"w 	c #D83700",
"x 	c #DF3500",
"y 	c #B43C3C",
"z 	c #D13A02",
"A 	c #CD392A",
"B 	c #B2413D",
"C 	c #D53E00",
"D 	c #B24243",
"E 	c #DD3C00",
"F 	c #CB3E24",
"G 	c #C74114",
"H 	c #CF400E",
"I 	c #D04103",
"J 	c #BC423C",
"K 	c #E63C00",
"L 	c #B44445",
"M 	c #DF3F01",
"N 	c #E14002",
"O 	c #E24100",
"P 	c #CF4804",
"Q 	c #D54608",
"R 	c #DE4602",
"S 	c #D84800",
"T 	c #E04700",
"U 	c #D14A1C",
"V 	c #B64D4E",
"W 	c #E24900",
"X 	c #CE4E12",
"Y 	c #DD4C03",
"Z 	c #BA504C",
"` 	c #DF4D00",
" .	c #E64C00",
"..	c #E14F00",
"+.	c #E84D00",
"@.	c #BB5253",
"#.	c #D1511E",
"$.	c #DB5103",
"%.	c #C8523B",
"&.	c #E35000",
"*.	c #BD5354",
"=.	c #DE5307",
"-.	c #C65636",
";.	c #DD5900",
">.	c #BD5A57",
",.	c #D85B00",
"'.	c #C65949",
").	c #E95602",
"!.	c #E35800",
"~.	c #BE5B5E",
"{.	c #DF5B00",
"].	c #EC5800",
"^.	c #D15A48",
"/.	c #EF5A00",
"(.	c #C95D58",
"_.	c #DE6000",
":.	c #C66052",
"<.	c #E16201",
"[.	c #EC5F00",
"}.	c #BF6362",
"|.	c #ED6000",
"1.	c #EB6400",
"2.	c #C96751",
"3.	c #DC6624",
"4.	c #C46766",
"5.	c #D3673D",
"6.	c #EE6600",
"7.	c #C8695D",
"8.	c #EF6700",
"9.	c #D46660",
"0.	c #CA6A5E",
"a.	c #F06901",
"b.	c #EB6B00",
"c.	c #C36D69",
"d.	c #C26D6E",
"e.	c #D36B5D",
"f.	c #E27000",
"g.	c #EE6D01",
"h.	c #E47100",
"i.	c #E57200",
"j.	c #F27000",
"k.	c #CE706F",
"l.	c #E77400",
"m.	c #F37100",
"n.	c #C97374",
"o.	c #F47200",
"p.	c #EF7400",
"q.	c #EA7604",
"r.	c #D97168",
"s.	c #F17500",
"t.	c #DE753A",
"u.	c #CB7576",
"v.	c #F27600",
"w.	c #D07667",
"x.	c #C77876",
"y.	c #D87959",
"z.	c #D17975",
"A.	c #F77A00",
"B.	c #F87B02",
"C.	c #F37D00",
"D.	c #CD7D7B",
"E.	c #F97C05",
"F.	c #F47E00",
"G.	c #F67F03",
"H.	c #D47F6D",
"I.	c #F78000",
"J.	c #F78005",
"K.	c #D0807E",
"L.	c #F88100",
"M.	c #CD8486",
"N.	c #F88700",
"O.	c #FA8800",
"P.	c #FB8900",
"Q.	c #D08889",
"R.	c #FC8A00",
"S.	c #F08C1A",
"T.	c #F18D1B",
"U.	c #D08E8D",
"V.	c #FC8F02",
"W.	c #D18F8E",
"X.	c #FE9000",
"Y.	c #D08F93",
"Z.	c #FD9005",
"`.	c #F0921F",
" +	c #FF9100",
".+	c #D3908F",
"++	c #FD9B00",
"@+	c #E29780",
"#+	c #FE9D00",
"$+	c #D49A9B",
"%+	c #D59B9C",
"&+	c #D69C9D",
"*+	c #D99EA0",
"=+	c #DAA1A8",
"-+	c #DEA19D",
";+	c #DCA1A3",
">+	c #DCA7A7",
",+	c #E2A896",
"'+	c #E2ABA5",
")+	c #E4ADA7",
"!+	c #DFAFA7",
"~+	c #DDB1B4",
"{+	c #E3B5B2",
"]+	c #E4B6B3",
"^+	c #E5B7B4",
"/+	c #E7B8B5",
"(+	c #E6BCC4",
"_+	c #E4BFBF",
":+	c #E6C1C2",
"<+	c #E8C5CC",
"[+	c #E6C8C7",
"}+	c #E4C8CD",
"|+	c #E9C8C1",
"1+	c #E9CAC9",
"2+	c #EBCFD3",
"3+	c #EFD1D0",
"4+	c #F1D2D1",
"5+	c #EDD6D3",
"6+	c #F0D8D5",
"7+	c #F0DEE7",
"8+	c #F3DEE1",
"9+	c #EDE0E1",
"0+	c #F4DFE2",
"a+	c #F5E0E3",
"b+	c #EFE2E3",
"c+	c #F3E6E6",
"d+	c #F5E8E8",
"e+	c #F6E9E9",
"f+	c #F4EAF1",
"g+	c #FAECED",
"h+	c #F8F3F1",
"i+	c #FCF6F5",
"j+	c #FDF7F6",
"k+	c #FEF8F7",
"l+	c #FFFAF9",
"m+	c #FCFFFB",
"n+	c #FEFFFC",
"                                                                ",
"                                                                ",
"                        : % ~ M.Z % % =                         ",
"                    4+n+u., , - > , , , k.a+@.                  ",
"                b 9+k+~+( _ ] 9.4+e+/+| 9 8+n+o                 ",
"            . ^ 7 ' # ^ 2 7 7 4+n+n+n+(.2 * # 7 5 {             ",
"          D K.< f d s r.A 7 d J 2+g+*+6 f f i 1+i+d+c.          ",
"          k+n+-+n ^.n+n+n+e.u x [ / c u u n '+n+n+n+n+~.        ",
"        _+n+n+c+r :+n+n+n+}+k M O K 0 F e M z.n+n+n+n+D.        ",
"      4.n+n+n+[+E .+n+n+n+&+R  .T 7.n+n+b+U j 7.{+/+H.w =       ",
"      _+n+n+2+h /.Q $+0+>+H /./.$.e+n+n+n+)++.)...p %. ...      ",
"    1 S t G C a.6.8...z Y =.y.#.!._+n+n+n+w.|.[.:.n+n+,+6.1     ",
"    m P <+&+;.o.o.o.o.o.m.@+n+7+..I x.{+'.b.o.1.!+n+n+|+o.q     ",
"  1 ;.0.n+n+3.J.C.C.C.C.E.5.f+Q.m.L.s.b.A.C.C.C.X =+(+t.E._.!   ",
"  . C.s.2.-.v.N.P.P.N.N.N.P.{.C.P.N.N.N.N.N.P.P.R.I.C.R.P.P..   ",
"  1 ++ +V.Z.X.V.V.V.V.V.V.Z. +X.V.V.V.V.V.V.V.V.V.X.X.Z.X.#+!   ",
"    ,.i.q.h.S.`.T.T.T.T.T.T.T.T.T.T.T.T.T.T.T.T.`.T.h.q.i._.    ",
"            3 Y.i+h+h+h+h+h+h+h+h+h+h+h+h+h+h+j+%+a             ",
"                B _+n+n+n+n+n+n+n+n+n+n+n+n+[+V                 ",
"                    }.n+n+n+n+n+n+n+n+n+n+n.                    ",
"                      >.n+n+n+n+n+n+n+n+d.                      ",
"                        v n+n+n+n+n+n+*.                        ",
"                          U.n+n+n+n+;+                          ",
"                            6+n+n+c+                            ",
"                            v k+n+y                             ",
"                              4+6+                              ",
"                              .+;+                              ",
"                              o L                               ",
"                                                                ",
"                                                                ",
"                                                                ",
"                                                                "};
