/* XPM */
static char * Amanita48_xpm[] = {
"48 48 256 2",
"  	c None",
". 	c #950002",
"+ 	c #A00001",
"@ 	c #990300",
"# 	c #AD0001",
"$ 	c #A40300",
"% 	c #B70000",
"& 	c #9C0908",
"* 	c #B00400",
"= 	c #C50000",
"- 	c #9F0D02",
"; 	c #BC0502",
"> 	c #D00000",
", 	c #A01000",
"' 	c #AA0E08",
") 	c #B50E07",
"! 	c #AC1202",
"~ 	c #BF0D00",
"{ 	c #CA0B01",
"] 	c #A31514",
"^ 	c #D50900",
"/ 	c #A3161A",
"( 	c #CB0F03",
"_ 	c #A41821",
": 	c #B01800",
"< 	c #B01815",
"[ 	c #BA1702",
"} 	c #CE1400",
"| 	c #C61800",
"1 	c #CE160F",
"2 	c #BF1D00",
"3 	c #BD1C16",
"4 	c #DA1603",
"5 	c #AF2305",
"6 	c #B12400",
"7 	c #BC2500",
"8 	c #C22212",
"9 	c #B1261E",
"0 	c #AA2927",
"a 	c #CE2300",
"b 	c #D72102",
"c 	c #B82C15",
"d 	c #AD2D2F",
"e 	c #D22800",
"f 	c #D2280A",
"g 	c #D0271B",
"h 	c #B82D29",
"i 	c #DB2700",
"j 	c #BD3000",
"k 	c #CA2B18",
"l 	c #D32915",
"m 	c #AC3431",
"n 	c #C93305",
"o 	c #D0310B",
"p 	c #BE342E",
"q 	c #D33301",
"r 	c #B03839",
"s 	c #AF383E",
"t 	c #C63800",
"u 	c #C5370F",
"v 	c #CB3512",
"w 	c #CC3613",
"x 	c #DD3300",
"y 	c #CB361B",
"z 	c #D3341E",
"A 	c #C53918",
"B 	c #C93B00",
"C 	c #B43C3C",
"D 	c #D0390D",
"E 	c #E13700",
"F 	c #B73E38",
"G 	c #C33E19",
"H 	c #CC3D0B",
"I 	c #D33C04",
"J 	c #C33E20",
"K 	c #D43D00",
"L 	c #B2413D",
"M 	c #C64012",
"N 	c #D43E22",
"O 	c #B84535",
"P 	c #DF3F01",
"Q 	c #E73D00",
"R 	c #B54545",
"S 	c #D34305",
"T 	c #B8463C",
"U 	c #E14003",
"V 	c #D54500",
"W 	c #DC4300",
"X 	c #C84431",
"Y 	c #C6481D",
"Z 	c #CF433A",
"` 	c #D8422B",
" .	c #E44300",
"..	c #CF4811",
"+.	c #BC4A45",
"@.	c #BB4A4A",
"#.	c #C24947",
"$.	c #E04703",
"%.	c #CB483F",
"&.	c #C24D31",
"*.	c #C24D37",
"=.	c #B74E4F",
"-.	c #D74E00",
";.	c #CA4D3B",
">.	c #D74A33",
",.	c #E54B00",
"'.	c #BA5152",
").	c #C95230",
"!.	c #D35217",
"~.	c #E25000",
"{.	c #C75241",
"].	c #C95336",
"^.	c #CC542B",
"/.	c #DE5300",
"(.	c #D75502",
"_.	c #D6540F",
":.	c #C95448",
"<.	c #D45428",
"[.	c #CF5627",
"}.	c #C15651",
"|.	c #C45748",
"1.	c #C65743",
"2.	c #BC5956",
"3.	c #E95603",
"4.	c #CB5A34",
"5.	c #E45800",
"6.	c #BE5B5E",
"7.	c #DF5B00",
"8.	c #EC5800",
"9.	c #E65A02",
"0.	c #C95C51",
"a.	c #D95E1F",
"b.	c #CF5E3D",
"c.	c #DB5F17",
"d.	c #D65D40",
"e.	c #DE600E",
"f.	c #E06200",
"g.	c #ED6000",
"h.	c #BF6469",
"i.	c #D06541",
"j.	c #DF6702",
"k.	c #CE654C",
"l.	c #CA6562",
"m.	c #C66862",
"n.	c #C56867",
"o.	c #D7664A",
"p.	c #EE6700",
"q.	c #CC6A53",
"r.	c #E26A15",
"s.	c #EA6A00",
"t.	c #D06B43",
"u.	c #E96A0E",
"v.	c #CB6B5F",
"w.	c #F16A03",
"x.	c #E66D0C",
"y.	c #E76E00",
"z.	c #EE6D02",
"A.	c #D46C5E",
"B.	c #C56F70",
"C.	c #C8716D",
"D.	c #F37100",
"E.	c #EC7214",
"F.	c #EF7408",
"G.	c #CA7475",
"H.	c #F67300",
"I.	c #CB7576",
"J.	c #ED7809",
"K.	c #F47800",
"L.	c #D1786E",
"M.	c #D07874",
"N.	c #CA7A78",
"O.	c #D57A6A",
"P.	c #F37C00",
"Q.	c #CD7C75",
"R.	c #F87B02",
"S.	c #CA7C80",
"T.	c #F67F04",
"U.	c #D47F6D",
"V.	c #F88000",
"W.	c #F28202",
"X.	c #D0807E",
"Y.	c #CB8384",
"Z.	c #DB8366",
"`.	c #F78500",
" +	c #CF8581",
".+	c #D2867C",
"++	c #F98700",
"@+	c #DC856D",
"#+	c #D7857D",
"$+	c #F68B00",
"%+	c #FC8A00",
"&+	c #D1898A",
"*+	c #FD8B00",
"=+	c #D18A90",
"-+	c #D68B87",
";+	c #D58C8D",
">+	c #DB8D7E",
",+	c #D18F8E",
"'+	c #FD9004",
")+	c #DE8E79",
"!+	c #FE9100",
"~+	c #D8907E",
"{+	c #D6928B",
"]+	c #D39296",
"^+	c #E09182",
"/+	c #D59498",
"(+	c #FF9800",
"_+	c #D99694",
":+	c #DF988B",
"<+	c #D59B9C",
"[+	c #DB9E9A",
"}+	c #DA9FA1",
"|+	c #E09F90",
"1+	c #DE9F96",
"2+	c #D5A3A8",
"3+	c #D7A3A3",
"4+	c #DBA59F",
"5+	c #D9A6AB",
"6+	c #DBA7A6",
"7+	c #E0ABAB",
"8+	c #E4ADA7",
"9+	c #DCAFAC",
"0+	c #E4AFAE",
"a+	c #DFB1AF",
"b+	c #E6B3A5",
"c+	c #E5B4AC",
"d+	c #E4B6B3",
"e+	c #E4B8BB",
"f+	c #E0BBBC",
"g+	c #E2BFC5",
"h+	c #E7C1C2",
"i+	c #E9C6CC",
"j+	c #E4C8CD",
"k+	c #EECDC6",
"l+	c #EACED2",
"m+	c #EECFCE",
"n+	c #EED2D6",
"o+	c #ECD5D1",
"p+	c #EBD6D9",
"q+	c #F1D9D6",
"r+	c #F0DBDD",
"s+	c #F3DFE1",
"t+	c #EEE4EA",
"u+	c #F1E4E4",
"v+	c #F9EBEC",
"w+	c #F6F0EF",
"x+	c #F9EFF5",
"y+	c #F3F1F5",
"z+	c #FAF5F3",
"A+	c #F9F7FB",
"B+	c #FEF8F7",
"C+	c #FDFAFF",
"D+	c #FFFCFA",
"E+	c #F8FEFF",
"F+	c #FCFFFB",
"G+	c #FEFFFC",
"                                                                                                ",
"                                                                                                ",
"                                                                                                ",
"                                      + + + B.<+Y.+ $ + +                                       ",
"                                ,+9+'.; = = ' @.< = > = ~ # ] B.                                ",
"                            Y.h+G+G+_+1 > > > = 1 g g 1 > > p w+r+&+                            ",
"                        0 }+B+G+z+p+F ( ^ ^ } %.[+o+o+_+Z ( 3 <+G+G+6+d                         ",
"                      # ) #.-+[+X.9 ~ ^ ^ ^ 3 B+G+G+G+G+s+8 ( < ;+a+l.) #                       ",
"                    * } 4 ( % % % } 4 b b 4 h B+G+G+G+G+u+p 4 } % * ; l Z +.=.                  ",
"                  }.k b i i b f ` >.z b b i [ _+r+z+z+r+ +| i i i b ;.6+u+B+d+N.                ",
"                f+z+_+y b b N #+h+l+0+A.e i b [ 0.M.L.:.2 i i i b X l+G+G+G+G+m+                ",
"              }+G+G+E+#+a o 1+G+G+G+G+A+{.x E E a | | e E E E E a v.G+G+G+G+G+G+h+              ",
"            Y.B+G+G+G+a+w d.r+G+G+G+G+G+<+q P U U Q E e o D e E e |.y+G+G+G+G+G+G+R             ",
"          =.s+G+G+G+G+a+n o.r+G+G+G+G+G+2+I  . . . .A >+c+c+^+<.x w G.r+G+G+G+t+{+A $           ",
"          6+G+G+G+G+A+Q.q H a+G+G+G+G+G+}.$.,.,.,.n d+C+G+G+E+c+<.U H *.m.Q.v.b.S ,.7           ",
"        s r+G+G+G+A+,+M ~.,.).}+t+y+n+I.S 8.8.3.3.O G+G+G+G+G+x+@+,.3.W K 7 c J K 3.~.$         ",
"        5 b.Q.,+N.|...~.g.g.~.!.).].^.-.8.K K g.g.T G+G+G+G+G+y+)+,.g.g.I O.k+q+c+a.g.7         ",
"        V 9.V B -.9.g.p.p.p.p.g.5.5.9.p.Y |+|+G p.u g+G+G+G+G+m+[.g.w.~.k.r+G+G+G+~+u.5.$       ",
"      ! z._.:+b+q.V H.D.D.D.D.D.D.H.H.V 8+z+A+a+/.p.Y S.i+i+,+[.s.H.H.V U.A+G+G+G+4+E.H.:       ",
"      j F..+C+C+l+t.s.K.K.K.K.K.K.K.R.S k+G+G+l+-.K.z.f.c.c.j.D.K.K.K.p.4.l+G+G+G+Z.F.R.B       ",
"    - -.P. +G+G+r+i.D.V.T.T.V.V.V.T.V.K.*.j+n+*.K.V.V.P.K.K.P.V.T.V.V.V.f.&.=+5+q.x.T.V.7.-     ",
"    , y.++r.C.S.1.f.%+++++++++++++++++++P.j.e.P.++++++++++++++++++++++++V.T.J.J.T.++++%+P.-     ",
"    $ %+%+%+W.W.++%+%+%+%+%+%+%+%+%+$+%+%+%+%+%+%+%+%+%+%+%+%+%+%+%+%+%+%+%+%+%+%+%+%+%+!+!     ",
"    ! (+!+!+'+'+'+!+'+'+!+!+!+!+'+!+'+!+!+!+'+'+'+'+'+'+'+'+'+'+'+'+'+'+'+'+!+!+'+!+!+!+(+6     ",
"      (.P.$+'+'+'+'+'+'+'+'+'+'+'+'+'+'+'+'+'+'+'+'+'+'+'+'+'+'+'+'+'+'+'+'+'+'+'+'+$+P.f.$     ",
"            . . / 6.]+]+]+/+/+/+/+/+/+/+/+/+/+/+/+/+/+/+/+/+/+/+/+/+/+]+]+]+h._ . .             ",
"                  @ R 6+v+G+G+G+G+G+G+G+G+G+G+G+G+G+G+G+G+G+G+G+G+G+G+v+0+'.&                   ",
"                        r 7+z+G+G+G+G+G+G+G+G+G+G+G+G+G+G+G+G+G+G+z+e+C                         ",
"                            n.m+B+G+G+G+G+G+G+G+G+G+G+G+G+G+G+B+o+N.                            ",
"                              m a+B+G+G+G+G+G+G+G+G+G+G+G+G+B+h+L                               ",
"                                / 3+B+G+G+G+G+G+G+G+G+G+G+B+a+d                                 ",
"                                  ] }+B+G+G+G+G+G+G+G+G+B+a+d                                   ",
"                                    ] a+B+G+G+G+G+G+G+B+h+0                                     ",
"                                      d m+G+G+G+G+G+G+r+R                                       ",
"                                        2.w+G+G+G+G+z+G.                                        ",
"                                          <+G+G+G+G+a+                                          ",
"                                          d u+G+G+v+r                                           ",
"                                            Y.G+G+}+                                            ",
"                                            m z+D+R                                             ",
"                                              d+m+@                                             ",
"                                              2.N.                                              ",
"                                              d m                                               ",
"                                              & &                                               ",
"                                                @                                               ",
"                                                                                                ",
"                                                                                                ",
"                                                                                                ",
"                                                                                                "};
