/* XPM */
static char * Amanita16__xpm[] = {
"16 16 90 1",
" 	c None",
".	c #E6C3C3",
"+	c #CA302B",
"@	c #BD120F",
"#	c #C20100",
"$	c #BD0000",
"%	c #D79897",
"&	c #D05F54",
"*	c #DD857C",
"=	c #D01A04",
"-	c #D1392C",
";	c #FBFDFE",
">	c #E49893",
",	c #CF5A51",
"'	c #D16C64",
")	c #DC9691",
"!	c #D32A04",
"~	c #E7BCB9",
"{	c #D96F5C",
"]	c #D52C04",
"^	c #CF6E64",
"/	c #CD3C20",
"(	c #DC2B00",
"_	c #E3A8A2",
":	c #FEFCFC",
"<	c #F9F1F1",
"[	c #FFFFFF",
"}	c #D3725E",
"|	c #ECDDE5",
"1	c #E13B00",
"2	c #DA4611",
"3	c #E9A694",
"4	c #DE6B45",
"5	c #D97D65",
"6	c #EBC8C5",
"7	c #DC8064",
"8	c #C1472B",
"9	c #DFA8A0",
"0	c #D15525",
"a	c #E75600",
"b	c #D47252",
"c	c #D8581C",
"d	c #E05709",
"e	c #DC8D75",
"f	c #F0DDDE",
"g	c #E74F00",
"h	c #D47053",
"i	c #E49473",
"j	c #CC3A00",
"k	c #DB6115",
"l	c #EFD4D5",
"m	c #EF7100",
"n	c #F47900",
"o	c #F67800",
"p	c #DF6D25",
"q	c #F1E2E8",
"r	c #E96E0A",
"s	c #E9893F",
"t	c #EB7715",
"u	c #EF6E00",
"v	c #DCA39F",
"w	c #E7BBB1",
"x	c #F06F00",
"y	c #F58000",
"z	c #E27114",
"A	c #FC8C00",
"B	c #FB8B00",
"C	c #FD8B00",
"D	c #F17500",
"E	c #FC8B00",
"F	c #FB8800",
"G	c #F58300",
"H	c #BA3303",
"I	c #D0785F",
"J	c #EDC1A8",
"K	c #EABBA2",
"L	c #EBBBA2",
"M	c #EDC1A9",
"N	c #D27D64",
"O	c #BA3406",
"P	c #F3E3E3",
"Q	c #F5E7E7",
"R	c #CD8282",
"S	c #F0DADA",
"T	c #FEFEFE",
"U	c #F2E0E0",
"V	c #FAF3F3",
"W	c #FCF8F8",
"X	c #D69999",
"Y	c #D49393",
"                ",
"                ",
"     .+@#$%     ",
"    &*=-;>,'    ",
"   )!~{]^/(_:   ",
"  <[}[|1234567  ",
" 890abcde[fghij ",
" klmnopqrstuvwx ",
" yzABBCDEAEECFG ",
"  HIJKKLKKKMNO  ",
"     P[[[[QR    ",
"      STTU      ",
"       VW       ",
"       XY       ",
"                ",
"                "};
