/* XPM */
static const char *amanita16_xpm[] = {
"16 16 93 2",
"  	c None",
". 	c #C40B02",
"+ 	c #AC1300",
"@ 	c #B51508",
"# 	c #CB1107",
"$ 	c #D01600",
"% 	c #C5200B",
"& 	c #CC2A03",
"* 	c #CB2E18",
"= 	c #DC2E00",
"- 	c #DA3200",
"; 	c #DF3200",
"> 	c #D03730",
", 	c #D04100",
"' 	c #C74337",
") 	c #CF4535",
"! 	c #E54400",
"~ 	c #D04945",
"{ 	c #DC4D00",
"] 	c #CB5024",
"^ 	c #DF5000",
"/ 	c #D25035",
"( 	c #CD5145",
"_ 	c #E75200",
": 	c #DE5504",
"< 	c #E45800",
"[ 	c #DA5D2A",
"} 	c #D86134",
"| 	c #C66452",
"1 	c #D5633D",
"2 	c #C76753",
"3 	c #E1680C",
"4 	c #DB663E",
"5 	c #F16A00",
"6 	c #D5724F",
"7 	c #E87718",
"8 	c #CD7673",
"9 	c #F17700",
"0 	c #F27800",
"a 	c #F37800",
"b 	c #EC7910",
"c 	c #F27A02",
"d 	c #F67C00",
"e 	c #CC7E7E",
"f 	c #F77F00",
"g 	c #F88000",
"h 	c #F58100",
"i 	c #F38200",
"j 	c #F48300",
"k 	c #E1864D",
"l 	c #F68800",
"m 	c #DD8664",
"n 	c #CF8787",
"o 	c #DB8A74",
"p 	c #F98E03",
"q 	c #F98F09",
"r 	c #F99008",
"s 	c #F9910C",
"t 	c #FB930B",
"u 	c #E9975D",
"v 	c #E59F8C",
"w 	c #D8A3A4",
"x 	c #EAB193",
"y 	c #E8B0AC",
"z 	c #E0B3B3",
"A 	c #E3B8B6",
"B 	c #E6B8B4",
"C 	c #E6B9AF",
"D 	c #DFBAC8",
"E 	c #E4BDBE",
"F 	c #E5BDBD",
"G 	c #E5BFBF",
"H 	c #E7BFBD",
"I 	c #E6C0C0",
"J 	c #E8C6C6",
"K 	c #E8C7C7",
"L 	c #EBCBCB",
"M 	c #EFCFC4",
"N 	c #EFD0C5",
"O 	c #ECD3D6",
"P 	c #F0D5D0",
"Q 	c #F2DCDA",
"R 	c #F1DDDD",
"S 	c #F2E0E0",
"T 	c #F6E9E9",
"U 	c #FAECE1",
"V 	c #FBEEE3",
"W 	c #F9F8FE",
"X 	c #FCF8F8",
"Y 	c #FEFCFC",
"Z 	c #FEFDFD",
"` 	c #FEFEFE",
" .	c #FFFFFF",
"                                ",
"                                ",
"          X > # ~ . L w         ",
"      @ * ' $ )  .y % ( 8       ",
"    z T /  .B = & - ; H ` E     ",
"     .O 1 W A ! 4 Q v [ o } +   ",
"  , ] < 5 { : m 6  .C _ I P ^   ",
"  3 D c f g 7 x 0 b 9 d k u a   ",
"  j h s q q r p q q q q t l i   ",
"      2 N V U U U U V M |       ",
"          G Y ` ` Z K           ",
"            F  . .J             ",
"              R S               ",
"              n e               ",
"                                ",
"                                "};
